<svg width="19" height="19" viewBox="0 0 19 19" fill="none" xmlns="http://www.w3.org/2000/svg">
<path d="M0.75 2.41667C0.75 1.49619 1.49619 0.75 2.41667 0.75H5.75C6.67047 0.75 7.41667 1.49619 7.41667 2.41667V5.75C7.41667 6.67047 6.67047 7.41667 5.75 7.41667H2.41667C1.49619 7.41667 0.75 6.67047 0.75 5.75V2.41667Z" stroke="#8A8A8A" stroke-width="1.5"/>
<path d="M17.4167 4.08333C17.4167 5.92428 15.9243 7.41667 14.0833 7.41667C12.2424 7.41667 10.75 5.92428 10.75 4.08333C10.75 2.24238 12.2424 0.75 14.0833 0.75C15.9243 0.75 17.4167 2.24238 17.4167 4.08333Z" stroke="#8A8A8A" stroke-width="1.5"/>
<path d="M7.41667 14.0833C7.41667 15.9243 5.92428 17.4167 4.08333 17.4167C2.24238 17.4167 0.75 15.9243 0.75 14.0833C0.75 12.2424 2.24238 10.75 4.08333 10.75C5.92428 10.75 7.41667 12.2424 7.41667 14.0833Z" stroke="#8A8A8A" stroke-width="1.5"/>
<path d="M10.75 12.4167C10.75 11.4962 11.4962 10.75 12.4167 10.75H15.75C16.6705 10.75 17.4167 11.4962 17.4167 12.4167V15.75C17.4167 16.6705 16.6705 17.4167 15.75 17.4167H12.4167C11.4962 17.4167 10.75 16.6705 10.75 15.75V12.4167Z" stroke="#8A8A8A" stroke-width="1.5"/>
</svg>
