<svg width="19" height="17" viewBox="0 0 19 17" fill="none" xmlns="http://www.w3.org/2000/svg">
<path d="M14.0833 12.4167H11.5833M14.0833 9.91667H11.5833M4.08333 15.75H14.0833C15.9243 15.75 17.4167 14.2576 17.4167 12.4167V4.08333C17.4167 2.24238 15.9243 0.75 14.0833 0.75H4.08333C2.24238 0.75 0.75 2.24238 0.75 4.08333V12.4167C0.75 14.2576 2.24238 15.75 4.08333 15.75ZM5.75 4.08333H7.41667C8.33714 4.08333 9.08333 4.82953 9.08333 5.75C9.08333 6.67047 8.33714 7.41667 7.41667 7.41667H5.75C4.82952 7.41667 4.08333 6.67047 4.08333 5.75C4.08333 4.82953 4.82952 4.08333 5.75 4.08333Z" stroke="#8A8A8A" stroke-width="1.5" stroke-linecap="round" stroke-linejoin="round"/>
</svg>
